<?xml version="1.0" encoding="UTF-8" standalone="no"?>
<!-- Generator: Adobe Illustrator 19.0.0, SVG Export Plug-In . SVG Version: 6.00 Build 0)  -->

<svg
   xmlns:dc="http://purl.org/dc/elements/1.1/"
   xmlns:cc="http://creativecommons.org/ns#"
   xmlns:rdf="http://www.w3.org/1999/02/22-rdf-syntax-ns#"
   xmlns:svg="http://www.w3.org/2000/svg"
   xmlns="http://www.w3.org/2000/svg"
   xmlns:sodipodi="http://sodipodi.sourceforge.net/DTD/sodipodi-0.dtd"
   xmlns:inkscape="http://www.inkscape.org/namespaces/inkscape"
   version="1.1"
   id="Layer_1"
   x="0px"
   y="0px"
   viewBox="0 0 315 314.99899"
   xml:space="preserve"
   sodipodi:docname="opera.svg"
   inkscape:version="0.92.5 (2060ec1f9f, 2020-04-08)"
   width="315"
   height="314.99899"><metadata
   id="metadata47"><rdf:RDF><cc:Work
       rdf:about=""><dc:format>image/svg+xml</dc:format><dc:type
         rdf:resource="http://purl.org/dc/dcmitype/StillImage" /><dc:title></dc:title></cc:Work></rdf:RDF></metadata><defs
   id="defs45" /><sodipodi:namedview
   pagecolor="#ffffff"
   bordercolor="#666666"
   borderopacity="1"
   objecttolerance="10"
   gridtolerance="10"
   guidetolerance="10"
   inkscape:pageopacity="0"
   inkscape:pageshadow="2"
   inkscape:window-width="1920"
   inkscape:window-height="1017"
   id="namedview43"
   showgrid="false"
   inkscape:zoom="0.47676768"
   inkscape:cx="-183.33686"
   inkscape:cy="159.59746"
   inkscape:window-x="-8"
   inkscape:window-y="-8"
   inkscape:window-maximized="1"
   inkscape:current-layer="g10"
   fit-margin-top="0"
   fit-margin-left="0"
   fit-margin-right="0"
   fit-margin-bottom="0" />
<g
   id="g10"
   transform="translate(-90,-90.001)">
	
	
	<path
   style="fill:#ff3501"
   d="m 261.408,132.652 c 40.048,8.276 70.78,56.541 70.78,114.848 0,58.309 -30.735,106.576 -70.786,114.849 14.116,6.988 29.521,10.724 45.321,10.724 18.379,0 36.44,-5.059 52.565,-14.65 C 387.534,329.956 405,290.771 405,247.5 c 0,-43.269 -17.464,-82.452 -45.706,-110.916 -16.124,-9.593 -34.186,-14.653 -52.571,-14.653 -15.798,0.001 -31.2,3.735 -45.315,10.721 z"
   id="path6"
   inkscape:connector-curvature="0" />
	<path
   style="fill:#ff3501"
   d="m 239.997,404.816 c 2.492,0.117 4.988,0.184 7.503,0.184 40.324,0 77.099,-15.163 104.963,-40.081 -18.462,12.244 -40.046,19.288 -63.115,19.288 -37.507,0 -71.096,-18.606 -93.687,-47.948 -17.416,-20.558 -28.695,-50.946 -29.463,-85.048 v -7.417 c 0.768,-34.102 12.048,-64.494 29.46,-85.048 22.595,-29.342 56.184,-47.948 93.691,-47.948 23.073,0 44.661,7.044 63.127,19.296 -27.728,-24.805 -64.283,-39.936 -104.38,-40.085 -0.2,0 -0.396,-0.008 -0.596,-0.008 C 160.516,90 90,160.512 90,247.5 c 0,84.468 66.496,153.402 149.997,157.316 z"
   id="path8"
   inkscape:connector-curvature="0" />
</g>
<g
   id="g12"
   transform="translate(-89.999997,-92.098455)">
</g>
<g
   id="g14"
   transform="translate(-89.999997,-92.098455)">
</g>
<g
   id="g16"
   transform="translate(-89.999997,-92.098455)">
</g>
<g
   id="g18"
   transform="translate(-89.999997,-92.098455)">
</g>
<g
   id="g20"
   transform="translate(-89.999997,-92.098455)">
</g>
<g
   id="g22"
   transform="translate(-89.999997,-92.098455)">
</g>
<g
   id="g24"
   transform="translate(-89.999997,-92.098455)">
</g>
<g
   id="g26"
   transform="translate(-89.999997,-92.098455)">
</g>
<g
   id="g28"
   transform="translate(-89.999997,-92.098455)">
</g>
<g
   id="g30"
   transform="translate(-89.999997,-92.098455)">
</g>
<g
   id="g32"
   transform="translate(-89.999997,-92.098455)">
</g>
<g
   id="g34"
   transform="translate(-89.999997,-92.098455)">
</g>
<g
   id="g36"
   transform="translate(-89.999997,-92.098455)">
</g>
<g
   id="g38"
   transform="translate(-89.999997,-92.098455)">
</g>
<g
   id="g40"
   transform="translate(-89.999997,-92.098455)">
</g>
</svg>